# xmcd
#
# Track frame offsets: 
#        187
#        22122
#        39614
#        56492
#        62514
#        79949
#        101599
#        120824
#        144302
#        148807
#        165222
#        183467
#        200944
#        207312
#
# Disc length: 3009 seconds
#
# Revision: 4
# Processed by: cddbd v1.5.2PL0 Copyright (c) Steve Scherf et al.
# Submitted via: ExactAudioCopy v0.99pb4
#
DISCID=c50bbf0e
DTITLE=Out Of Eden - Lovin' The Day
DYEAR=1995
DGENRE=R&B
TTITLE0=Lovely Day
TTITLE1=Come and Take My Hand
TTITLE2=Show Me
TTITLE3=3 Bro's w/ no Fro's (Interlude)
TTITLE4=Good Thing
TTITLE5=Gotee's Groovin'
TTITLE6=Bandwagon
TTITLE7=There Is A Love
TTITLE8=Joy (Interlude)
TTITLE9=Heart Of Hearts
TTITLE10=A Friend
TTITLE11=Force Like This
TTITLE12=Lovely Vibe (Interlude)
TTITLE13=Gotee's Groovin (Dramapella)
EXTD=
EXTT0=
EXTT1=
EXTT2=
EXTT3=
EXTT4=
EXTT5=
EXTT6=
EXTT7=
EXTT8=
EXTT9=
EXTT10=
EXTT11=
EXTT12=
EXTT13=
PLAYORDER=
